HIERARCHY
ROOT Hips
{
    OFFSET 0.0 0.0 0.0
    CHANNELS 6 Xposition Yposition Zposition Zrotation Xrotation Yrotation
    JOINT LeftHipJoint
    {
        OFFSET 0.1 0.0 0.0
        CHANNELS 3 Zrotation Xrotation Yrotation
        JOINT LeftUpLeg
        {
            OFFSET 124.31395697935153 0.0 0.0
            CHANNELS 3 Zrotation Xrotation Yrotation
            JOINT LeftLeg
            {
                OFFSET 0.0 0.0 -416.81563884335327
                CHANNELS 3 Zrotation Xrotation Yrotation
                JOINT LeftFoot
                {
                    OFFSET 0.0 0.0 -397.40540413845935
                    CHANNELS 3 Zrotation Xrotation Yrotation
                    End Site
                    {
                        OFFSET 0.0 -0.1 0.0
                    }
                }
            }
        }
    }
    JOINT LowerBack
    {
        OFFSET 0.0 0.0 0.1
        CHANNELS 3 Zrotation Xrotation Yrotation
        JOINT Spine
        {
            OFFSET 0.0 0.0 220.2361962759298
            CHANNELS 3 Zrotation Xrotation Yrotation
            JOINT Spine1
            {
                OFFSET 0.0 0.0 252.56758756150393
                CHANNELS 3 Zrotation Xrotation Yrotation
                JOINT LeftShoulder
                {
                    OFFSET 0.1 0.0 0.0
                    CHANNELS 3 Zrotation Xrotation Yrotation
                    JOINT LeftArm
                    {
                        OFFSET 142.33321259839272 0.0 0.0
                        CHANNELS 3 Zrotation Xrotation Yrotation
                        JOINT LeftForeArm
                        {
                            OFFSET 260.3739383193987 0.0 0.0
                            CHANNELS 3 Zrotation Xrotation Yrotation
                            JOINT LeftHand
                            {
                                OFFSET 241.27488857420082 0.0 0.0
                                CHANNELS 3 Zrotation Xrotation Yrotation
                                End Site
                                {
                                    OFFSET 0.1 0.0 0.0
                                }
                            }
                        }
                    }
                }
                JOINT Neck
                {
                    OFFSET 0.0 0.0 0.1
                    CHANNELS 3 Zrotation Xrotation Yrotation
                    JOINT Neck1
                    {
                        OFFSET 0.0 0.0 106.43497429148934
                        CHANNELS 3 Zrotation Xrotation Yrotation
                        End Site
                        {
                            OFFSET 0.0 0.0 115.17785232857722
                        }
                    }
                }
                JOINT RightShoulder
                {
                    OFFSET -0.1 0.0 0.0
                    CHANNELS 3 Zrotation Xrotation Yrotation
                    JOINT RightArm
                    {
                        OFFSET -142.33321259839272 0.0 0.0
                        CHANNELS 3 Zrotation Xrotation Yrotation
                        JOINT RightForeArm
                        {
                            OFFSET -260.3739383193987 0.0 0.0
                            CHANNELS 3 Zrotation Xrotation Yrotation
                            JOINT RightHand
                            {
                                OFFSET -241.27488857420082 0.0 0.0
                                CHANNELS 3 Zrotation Xrotation Yrotation
                                End Site
                                {
                                    OFFSET -0.1 0.0 0.0
                                }
                            }
                        }
                    }
                }
            }
        }
    }
    JOINT RightHipJoint
    {
        OFFSET -0.1 0.0 0.0
        CHANNELS 3 Zrotation Xrotation Yrotation
        JOINT RightUpLeg
        {
            OFFSET -124.31395697935153 0.0 0.0
            CHANNELS 3 Zrotation Xrotation Yrotation
            JOINT RightLeg
            {
                OFFSET 0.0 0.0 -416.81563884335327
                CHANNELS 3 Zrotation Xrotation Yrotation
                JOINT RightFoot
                {
                    OFFSET 0.0 0.0 -397.40540413845935
                    CHANNELS 3 Zrotation Xrotation Yrotation
                    End Site
                    {
                        OFFSET 0.0 -0.1 0.0
                    }
                }
            }
        }
    }
}
MOTION
Frames: 8
Frame Time: 0.03333333333333333
0.0 0.0 815.6358488349501 30.088192414284784 -1.6206070911266528 5.494752197551734 -3.1805546814635168e-15 -8.276074308844047e-33 2.981770013872047e-16 -0.34078806722657756 -11.493497943167162 0.08705719138997443 0.7960346188543383 23.761330320514634 -0.2986892864093209 0.0 0.0 3.975693351829396e-16 -3.1805546814635168e-15 -8.276074308844047e-33 2.981770013872047e-16 -0.08747696467304061 -2.9650924417767763 2.652981873715327 4.470969309756836 -8.255492414281754e-16 -7.635178191763441e-16 0.0 0.0 3.975693351829396e-16 -13.62081972312753 16.41986281107093 69.11005883002079 -18.364512134526638 -2.16422350758328e-15 -1.1525598153975837e-14 -7.95138670365879e-16 1.5902773407317582e-15 -5.9635400277440935e-15 0.0 0.0 3.975693351829396e-16 -13.269200166707254 5.5425134995227845 -5.766481007957641 0.0 0.0 3.975693351829396e-16 36.00278530475773 -55.6465892077117 -3.0557278139895017 104.6851731558359 7.934231621275233e-16 -1.1440172409056299e-14 7.951386703658792e-16 0.0 0.0 -3.1805546814635168e-15 -8.276074308844047e-33 2.981770013872047e-16 -0.19157270633858547 -6.391478490042428 -2.687634731035747 -0.5044440377716661 27.08552067469952 2.5091210676785844 0.0 0.0 -2.385416011097637e-15
0.0 0.0 815.6358488349501 30.103720537121973 -1.7131981322545256 5.361005748456206 0.0 0.0 -2.981770013872047e-16 -0.32720283499394637 -11.407573830531655 0.14929104427631848 0.8048881941628612 23.913400167756812 -0.15808418867973006 -3.1805546814635168e-15 -1.1034765745125397e-32 3.975693351829396e-16 0.0 0.0 -2.981770013872047e-16 -0.08455586309646096 -2.9601324540647074 2.6786685183079406 4.49349311297832 -3.8167776836437055e-16 4.1284965022632997e-16 0.0 3.9756933518293955e-16 0.0 -12.79621955429349 16.332787163840834 68.98613055584674 -18.463712926108915 -6.35939709298689e-15 9.38847527156078e-15 0.0 0.0 -7.951386703658792e-16 0.0 3.9756933518293955e-16 0.0 -13.3260166078622 5.660816271486321 -5.898277765925105 0.0 3.9756933518293955e-16 0.0 37.076076206203005 -55.547741584322864 -2.0621517877684954 103.79792213147077 -3.925123450895499e-15 5.0057085634651355e-15 0.0 0.0 0.0 0.0 0.0 -2.981770013872047e-16 -0.1768578868804523 -6.086164115293614 -2.673507063889575 -0.5237684453683882 27.017475741409104 2.5126382487926207 0.0 -3.9756933518293955e-16 0.0
0.0 0.0 815.6358488349501 30.196529721203536 -1.8274525448171375 5.10214149153365 0.0 0.0 0.0 -0.29566296432201566 -11.375058769624289 0.32463953806972057 0.8271544562604388 24.254299378355224 -0.02719349959746755 0.0 0.0 3.975693351829396e-16 0.0 0.0 0.0 -0.07608858224392866 -2.9360023058212907 2.786739898032804 4.531704069538376 -3.658216719492308e-16 8.10235389082267e-16 0.0 0.0 0.0 -11.85732907671218 16.118325615590955 68.82715582525573 -18.538823799028027 2.4759889030537192e-15 2.9256767636773207e-14 -7.951386703658792e-16 1.9310840053969444e-32 -2.782985346280577e-15 0.0 0.0 0.0 -13.552271497167268 5.896225355127022 -5.884518864038972 0.0 0.0 0.0 37.70940271338579 -55.354400963925265 -1.522412753551985 103.19843095379223 9.97021137378711e-15 7.902514439751311e-15 7.951386703658792e-16 0.0 0.0 0.0 0.0 0.0 -0.15256780027272177 -5.773538718614576 -2.4430862878211004 -0.48713639022949207 27.147900662386864 2.298431663906504 0.0 0.0 0.0
0.0 0.0 815.6358488349501 30.30832917559715 -1.9916899015057568 4.849890426347691 -6.3611093629270335e-15 -5.517382872562698e-33 9.93923337957349e-17 -0.27065352876315596 -11.26818003473163 0.5739501933071872 0.8943322755286891 24.395748053973257 -0.08841265042473238 0.0 0.0 -7.951386703658792e-16 -6.3611093629270335e-15 -5.517382872562698e-33 9.93923337957349e-17 -0.07025310666524767 -2.9295063014514646 2.882624108078071 4.564381019102223 1.652342729220853e-15 1.5256892036324862e-15 -6.361109362927033e-15 2.2069531490250793e-32 -3.9756933518293955e-16 -11.07791418725718 16.03097913021404 68.70574935194571 -18.772994181048233 2.550991801024561e-15 1.3820275298496755e-14 -1.3793457181406746e-32 1.5902773407317584e-15 9.93923337957349e-16 -6.361109362927033e-15 2.2069531490250793e-32 -3.9756933518293955e-16 -13.563765358657111 5.954456082138144 -5.739620642538649 -6.361109362927033e-15 2.2069531490250793e-32 -3.9756933518293955e-16 38.48220897551077 -55.106910740295 -0.7664450700147787 102.52412286296064 -3.980523237301623e-15 4.961768544019339e-15 0.0 0.0 0.0 -6.3611093629270335e-15 -5.517382872562698e-33 9.93923337957349e-17 -0.13703671158340536 -5.591671310170076 -2.20224847535821 -0.42561268401806873 27.40821583931415 2.009663822391084 0.0 0.0 7.951386703658792e-16
0.0 0.0 815.6358488349501 30.365336098388887 -2.145496589351034 4.5470306774173554 0.0 0.0 -9.93923337957349e-17 -0.23436176274574472 -11.31090749883945 0.8817231214911209 0.9702950351208685 24.900876975700335 -0.18973663821315062 6.896728590703373e-33 3.975693351829396e-16 -1.987846675914698e-15 0.0 0.0 -9.93923337957349e-17 -0.059630348203132816 -2.8769553193209716 2.9448504790977865 4.638188186763672 -7.944874243766134e-16 3.217510868098753e-17 0.0 0.0 3.975693351829396e-16 -10.040180466044943 15.73136562333717 68.5696338445672 -18.986398370230113 -8.249708218449527e-15 -3.697286123914225e-15 -1.5902773407317584e-15 8.276074308844047e-33 -5.963540027744094e-16 0.0 0.0 3.975693351829396e-16 -13.574881060551098 5.903698360912232 -5.455649469936523 0.0 0.0 3.975693351829396e-16 39.228247294547224 -54.70960459005958 0.02065108913014381 102.00279205148595 8.94666336943321e-15 -9.405526079268215e-16 6.957463365701443e-16 0.0 0.0 0.0 0.0 -9.93923337957349e-17 -0.11361954843982668 -5.339451719333273 -1.9755943732192365 -0.4111849690023329 27.744699472058873 1.8190643199725933 0.0 0.0 0.0
0.0 0.0 815.6358488349501 30.433689143070552 -2.198626657928298 4.2722036902165055 1.7241821476758432e-34 1.987846675914698e-16 -9.93923337957349e-17 -0.2211641424233367 -11.405457480458134 1.1142054673687034 1.0483453641153235 25.013162620550034 -0.25025337130268394 0.0 0.0 -3.975693351829396e-16 1.7241821476758432e-34 1.987846675914698e-16 -9.93923337957349e-17 -0.055478749607637476 -2.8575041937347434 3.0271192264834457 4.7962492359694355 2.1015389215454992e-15 -2.0776008280172793e-15 0.0 0.0 0.0 -9.283822297648806 15.593059005477542 68.42663062452218 -19.230609166280797 7.251246029007e-15 -4.7192553999935236e-15 -1.5902773407317584e-15 -4.1380371544220234e-32 2.9817700138720468e-15 0.0 0.0 0.0 -13.472792018480467 5.97987437058027 -5.386887589270568 0.0 0.0 0.0 40.02023670158513 -54.24476291906451 0.9175663107637165 101.33391921223038 8.952000950108322e-15 -8.883150586901285e-16 0.0 0.0 0.0 1.7241821476758432e-34 1.987846675914698e-16 -9.93923337957349e-17 -0.10155547772417864 -5.077553912039743 -1.8224159710673307 -0.3732164002326651 27.91640199858579 1.6608796041758602 0.0 0.0 7.951386703658792e-16
0.0 0.0 815.6358488349501 30.556795158300964 -2.3994332858407907 4.079226647287439 -6.361109362927033e-15 0.0 0.0 -0.21357416005281935 -11.50019940665453 1.1677887757295926 1.0687092951461163 25.367696578124725 -0.146191038789406 0.0 0.0 7.951386703658792e-16 -6.361109362927033e-15 0.0 0.0 -0.05127036859503999 -2.754797835441418 3.1004690782776336 4.837389309758659 -1.9860757303254568e-16 8.38904068253185e-18 -6.3611093629270335e-15 1.987846675914698e-16 1.1034765745125397e-32 -8.701852182633276 15.493151488405282 68.29109227497297 -19.24588609796946 6.1915853875393694e-15 6.291941583785297e-15 -1.5902773407317584e-15 -5.517382872562698e-33 3.975693351829396e-16 -6.3611093629270335e-15 1.987846675914698e-16 1.1034765745125397e-32 -13.395927639520899 6.072679859089825 -5.327316762123645 -6.3611093629270335e-15 1.987846675914698e-16 1.1034765745125397e-32 40.473602183467484 -54.119649188089824 1.534035770760678 101.40858877572452 -6.042954062802294e-15 7.384176252695807e-15 0.0 0.0 0.0 -6.361109362927033e-15 0.0 0.0 -0.08997284954560596 -4.669856329621576 -1.8743564255863725 -0.42544251657278126 27.910560784028295 1.6268912971822234 -3.1805546814635164e-15 -3.578124016646456e-15 7.95138670365879e-16
0.0 0.0 815.6358488349501 30.59588263893632 -2.7115476036934445 4.002240278361262 -6.3611093629270335e-15 4.969616689786745e-16 -1.9878466759146977e-16 -0.2116367198925741 -11.272930661272367 1.0391276476601379 1.0147922369783322 25.401192247425158 0.019126312753157737 -6.3611093629270335e-15 0.0 0.0 -6.3611093629270335e-15 4.969616689786745e-16 -1.9878466759146977e-16 -0.04955147055517944 -2.631726232185218 3.126178616294518 4.957403212357985 -1.640371673896624e-15 -1.1228157366294353e-15 0.0 0.0 0.0 -8.454765440773496 15.629836102131394 68.17684905635238 -19.258869726254776 6.2906277228240264e-15 5.704691558672227e-15 0.0 0.0 -2.782985346280577e-15 0.0 0.0 0.0 -13.366116711027216 6.153399432740765 -5.351382509462671 0.0 0.0 0.0 40.48915729113063 -53.81183800522979 1.682342789627719 101.33916106957177 -6.936151368507e-15 -1.5714466589916237e-15 0.0 0.0 0.0 -6.3611093629270335e-15 4.969616689786745e-16 -1.9878466759146977e-16 -0.08181492683591124 -4.18352308023081 -2.0124136174971197 -0.48929398619067 27.763965737540687 1.5814291842387533 0.0 0.0 -7.951386703658792e-16
